<svg xmlns="http://www.w3.org/2000/svg" version="1.1" xmlns:xlink="http://www.w3.org/1999/xlink" xmlns:svgjs="http://svgjs.dev/svgjs" width="1500" height="1500" viewBox="0 0 1500 1500"><rect width="1500" height="1500" fill="#ffffff"></rect><g transform="matrix(0.6666666666666666,0,0,0.6666666666666666,249.85778443113782,249.85778443113765)"><svg viewBox="0 0 334 334" data-background-color="#ffffff" preserveAspectRatio="xMidYMid meet" height="1500" width="1500" xmlns="http://www.w3.org/2000/svg" xmlns:xlink="http://www.w3.org/1999/xlink"><g id="tight-bounds" transform="matrix(1,0,0,1,0.04749999999998522,0.04750000000001364)"><svg viewBox="0 0 333.90454557049503 333.90454557049503" height="333.90454557049503" width="333.90454557049503"><g><svg></svg></g><g><svg viewBox="0 0 333.90454557049503 333.90454557049503" height="333.90454557049503" width="333.90454557049503"><g><path d="M0 166.952c0-92.205 74.747-166.952 166.952-166.952 92.205 0 166.952 74.747 166.953 166.952 0 92.205-74.747 166.952-166.953 166.953-92.205 0-166.952-74.747-166.952-166.953zM166.952 329.427c89.732 0 162.474-72.742 162.475-162.475 0-89.732-72.742-162.474-162.475-162.474-89.732 0-162.474 72.742-162.474 162.474 0 89.732 72.742 162.474 162.474 162.475z" data-fill-palette-color="tertiary" fill="#000000" stroke="transparent"></path><ellipse rx="160.27418187383762" ry="160.27418187383762" cx="166.95227278524752" cy="166.95227278524752" fill="#000000" stroke="transparent" stroke-width="0" fill-opacity="1" data-fill-palette-color="tertiary"></ellipse></g><g transform="matrix(1,0,0,1,89.75657970215256,71.17305217166896)"><svg viewBox="0 0 154.3913861661899 191.55844122715712" height="191.55844122715712" width="154.3913861661899"><g><svg viewBox="0 0 154.3913861661899 191.55844122715712" height="191.55844122715712" width="154.3913861661899"><g><svg viewBox="0 0 213.1584412271571 264.4726480526065" height="191.55844122715712" width="154.3913861661899"><g transform="matrix(1,0,0,1,0,147.91618973166788)"><svg viewBox="0 0 213.1584412271571 116.5564583209386" height="116.5564583209386" width="213.1584412271571"><g id="textblocktransform"><svg viewBox="0 0 213.1584412271571 116.5564583209386" height="116.5564583209386" width="213.1584412271571" id="textblock"><g><svg viewBox="0 0 213.1584412271571 68.55535104493805" height="68.55535104493805" width="213.1584412271571"><g transform="matrix(1,0,0,1,0,0)"><svg width="213.1584412271571" viewBox="1 -36.75 142.24 45.75" height="68.55535104493805" data-palette-color="#ffffff"><path d="M22.75-36L22.75-32.3 13.95-32.3 13.95 0 9.7 0 9.7-32.3 1-32.3 1-36 22.75-36ZM29.5 0L25.5 0 25.5-27 29.15-27 29.3-23.2Q30.3-25.45 31.85-26.55 33.4-27.65 35.3-27.65L35.3-27.65Q36-27.65 36.5-27.6 37-27.55 37.7-27.3L37.7-27.3 36.7-23.55Q36.25-23.65 35.77-23.73 35.3-23.8 34.7-23.8L34.7-23.8Q33.7-23.8 32.92-23.38 32.15-22.95 31.52-22.2 30.9-21.45 30.4-20.48 29.9-19.5 29.5-18.45L29.5-18.45 29.5 0ZM46.39-31.9L41.8-31.9 41.8-36.75 46.39-36.75 46.39-31.9ZM46.09 0L42.09 0 42.09-27 46.09-27 46.09 0ZM58.09 9L54.09 9 54.09-27 57.49-27 57.74-23.8Q59.04-25.65 60.87-26.7 62.69-27.75 64.94-27.75L64.94-27.75Q66.74-27.75 68.29-27.03 69.84-26.3 70.97-24.7 72.09-23.1 72.72-20.48 73.34-17.85 73.34-14.05L73.34-14.05Q73.34-6.95 70.84-3.23 68.34 0.5 63.64 0.5L63.64 0.5Q61.89 0.5 60.49-0.1 59.09-0.7 58.09-1.75L58.09-1.75 58.09 9ZM63.99-24.45L63.99-24.45Q62.24-24.45 60.82-23.48 59.39-22.5 58.09-20.75L58.09-20.75 58.09-4.9Q59.24-3.65 60.47-3.08 61.69-2.5 62.84-2.5L62.84-2.5Q64.29-2.5 65.44-3.13 66.59-3.75 67.42-5.15 68.24-6.55 68.69-8.8 69.14-11.05 69.14-14.3L69.14-14.3Q69.14-17.3 68.79-19.25 68.44-21.2 67.77-22.35 67.09-23.5 66.14-23.98 65.19-24.45 63.99-24.45ZM98.29-36L102.04-36 102.04 0 96.54 0 84.84-30.4 84.84 0 80.99 0 80.99-36 86.64-36 98.29-6.05 98.29-36ZM139.34-36L143.24-36 137.24 0 132.14 0 125.79-26.8 119.24 0 113.79 0 107.79-36 112.14-36 116.89-4.45 123.24-31.35 128.69-31.35 134.64-4.55 139.34-36Z" opacity="1" transform="matrix(1,0,0,1,0,0)" fill="#ffffff" class="wordmark-text-0" data-fill-palette-color="quaternary" id="text-0"></path></svg></g></svg></g><g transform="matrix(1,0,0,1,0,84.73962409822285)"><svg viewBox="0 0 213.1584412271571 31.816834222715755" height="31.816834222715755" width="213.1584412271571"><g transform="matrix(1,0,0,1,0,0)"><svg width="213.1584412271571" viewBox="3.52 -34.72 290.12 43.31" height="31.816834222715755" data-palette-color="#ffffff"><path d="M14.36 0L3.52 0 3.52-32.08 13.31-32.08Q16.14-32.08 18.18-31.51 20.21-30.93 21.52-29.85 22.83-28.76 23.44-27.21 24.05-25.66 24.05-23.71L24.05-23.71Q24.05-22.53 23.69-21.44 23.34-20.34 22.63-19.41 21.92-18.48 20.85-17.72 19.78-16.97 18.31-16.5L18.31-16.5Q21.66-15.84 23.35-14 25.05-12.16 25.05-9.16L25.05-9.16Q25.05-7.1 24.34-5.42 23.63-3.74 22.27-2.53 20.9-1.32 18.91-0.66 16.92 0 14.36 0L14.36 0ZM14.28-14.6L7.96-14.6 7.96-3.52 14.28-3.52Q15.97-3.52 17.18-3.94 18.38-4.37 19.15-5.13 19.92-5.88 20.28-6.95 20.63-8.01 20.63-9.25L20.63-9.25Q20.63-11.72 19.08-13.16 17.53-14.6 14.28-14.6L14.28-14.6ZM7.96-28.59L7.96-17.72 13.13-17.72Q14.77-17.72 15.99-18.13 17.21-18.53 18.02-19.24 18.82-19.95 19.23-20.95 19.63-21.95 19.63-23.17L19.63-23.17Q19.63-25.98 18.1-27.28 16.58-28.59 13.31-28.59L13.31-28.59 7.96-28.59ZM30.78-34.72L35.08-34.72 35.08 0 30.78 0 30.78-34.72ZM51.87-24.24L51.87-24.24Q54.49-24.24 56.59-23.38 58.69-22.51 60.15-20.91 61.62-19.31 62.41-17.04 63.2-14.77 63.2-11.96L63.2-11.96Q63.2-9.13 62.41-6.86 61.62-4.59 60.15-2.99 58.69-1.39 56.59-0.52 54.49 0.34 51.87 0.34L51.87 0.34Q49.26 0.34 47.15-0.52 45.04-1.39 43.56-2.99 42.08-4.59 41.29-6.86 40.5-9.13 40.5-11.96L40.5-11.96Q40.5-14.77 41.29-17.04 42.08-19.31 43.56-20.91 45.04-22.51 47.15-23.38 49.26-24.24 51.87-24.24ZM51.87-3L51.87-3Q53.61-3 54.9-3.6 56.2-4.2 57.06-5.35 57.93-6.49 58.36-8.15 58.78-9.81 58.78-11.94L58.78-11.94Q58.78-14.06 58.36-15.72 57.93-17.38 57.06-18.53 56.2-19.68 54.9-20.29 53.61-20.9 51.87-20.9L51.87-20.9Q50.12-20.9 48.81-20.29 47.5-19.68 46.64-18.53 45.77-17.38 45.34-15.72 44.92-14.06 44.92-11.94L44.92-11.94Q44.92-9.81 45.34-8.15 45.77-6.49 46.64-5.35 47.5-4.2 48.81-3.6 50.12-3 51.87-3ZM76.31-24.27L76.31-24.27Q77.8-24.27 79.09-23.93 80.39-23.58 81.44-22.95L81.44-22.95 87.69-22.95 87.69-21.36Q87.69-20.51 86.71-20.36L86.71-20.36 84.17-20Q84.93-18.43 84.93-16.58L84.93-16.58Q84.93-14.82 84.28-13.4 83.64-11.99 82.49-10.99 81.34-9.99 79.77-9.44 78.19-8.89 76.31-8.89L76.31-8.89Q74.75-8.89 73.43-9.25L73.43-9.25Q72.72-8.79 72.38-8.26 72.04-7.74 72.04-7.23L72.04-7.23Q72.04-6.37 72.7-5.96 73.36-5.54 74.43-5.35 75.51-5.15 76.87-5.1 78.24-5.05 79.67-4.94 81.1-4.83 82.46-4.59 83.83-4.35 84.9-3.75 85.98-3.15 86.64-2.11 87.3-1.07 87.3 0.59L87.3 0.59Q87.3 2.12 86.56 3.56 85.83 5 84.45 6.13 83.07 7.25 81.08 7.92 79.09 8.59 76.58 8.59L76.58 8.59Q74.06 8.59 72.18 8.08 70.31 7.57 69.06 6.69 67.81 5.81 67.2 4.66 66.59 3.52 66.59 2.27L66.59 2.27Q66.59 0.51 67.63-0.71 68.67-1.93 70.5-2.64L70.5-2.64Q69.5-3.1 68.91-3.91 68.33-4.71 68.33-6.05L68.33-6.05Q68.33-7.08 69.06-8.23 69.79-9.38 71.26-10.13L71.26-10.13Q69.57-11.13 68.61-12.77 67.64-14.4 67.64-16.58L67.64-16.58Q67.64-18.33 68.29-19.75 68.94-21.17 70.09-22.18 71.23-23.19 72.82-23.73 74.41-24.27 76.31-24.27ZM83.34 1.29L83.34 1.29Q83.34 0.44 82.89-0.1 82.44-0.63 81.66-0.94 80.88-1.25 79.85-1.38 78.83-1.51 77.68-1.59 76.53-1.66 75.35-1.71 74.16-1.76 73.06-1.93L73.06-1.93Q71.87-1.29 71.11-0.4 70.35 0.49 70.35 1.73L70.35 1.73Q70.35 2.54 70.72 3.22 71.09 3.91 71.86 4.41 72.62 4.91 73.82 5.2 75.02 5.49 76.65 5.49L76.65 5.49Q78.26 5.49 79.51 5.18 80.75 4.86 81.61 4.31 82.46 3.76 82.9 2.99 83.34 2.22 83.34 1.29ZM76.31-11.72L76.31-11.72Q78.68-11.72 79.89-13.04 81.1-14.36 81.1-16.48L81.1-16.48Q81.1-18.65 79.89-19.93 78.68-21.22 76.31-21.22L76.31-21.22Q73.99-21.22 72.78-19.93 71.57-18.65 71.57-16.48L71.57-16.48Q71.57-15.43 71.88-14.56 72.18-13.7 72.78-13.06 73.38-12.43 74.27-12.07 75.16-11.72 76.31-11.72ZM122.16-23.88L109.85 7.03Q109.66 7.52 109.33 7.79 109 8.06 108.36 8.06L108.36 8.06 105.16 8.06 109.26-1.42 100.13-23.88 103.84-23.88Q104.41-23.88 104.7-23.61 104.99-23.34 105.14-23L105.14-23 110.71-8.06Q110.9-7.54 111.08-7.03 111.27-6.52 111.39-6.01L111.39-6.01Q111.54-6.54 111.72-7.07 111.9-7.59 112.1-8.11L112.1-8.11 117.49-23Q117.64-23.36 117.98-23.62 118.32-23.88 118.74-23.88L118.74-23.88 122.16-23.88ZM135.7-24.24L135.7-24.24Q138.32-24.24 140.41-23.38 142.51-22.51 143.98-20.91 145.44-19.31 146.24-17.04 147.03-14.77 147.03-11.96L147.03-11.96Q147.03-9.13 146.24-6.86 145.44-4.59 143.98-2.99 142.51-1.39 140.41-0.52 138.32 0.34 135.7 0.34L135.7 0.34Q133.09 0.34 130.98-0.52 128.87-1.39 127.39-2.99 125.91-4.59 125.12-6.86 124.33-9.13 124.33-11.96L124.33-11.96Q124.33-14.77 125.12-17.04 125.91-19.31 127.39-20.91 128.87-22.51 130.98-23.38 133.09-24.24 135.7-24.24ZM135.7-3L135.7-3Q137.44-3 138.73-3.6 140.02-4.2 140.89-5.35 141.76-6.49 142.18-8.15 142.61-9.81 142.61-11.94L142.61-11.94Q142.61-14.06 142.18-15.72 141.76-17.38 140.89-18.53 140.02-19.68 138.73-20.29 137.44-20.9 135.7-20.9L135.7-20.9Q133.94-20.9 132.64-20.29 131.33-19.68 130.47-18.53 129.6-17.38 129.17-15.72 128.74-14.06 128.74-11.94L128.74-11.94Q128.74-9.81 129.17-8.15 129.6-6.49 130.47-5.35 131.33-4.2 132.64-3.6 133.94-3 135.7-3ZM151.91-23.88L156.21-23.88 156.21-8.67Q156.21-5.98 157.42-4.5 158.63-3.03 161.09-3.03L161.09-3.03Q162.92-3.03 164.5-3.89 166.07-4.76 167.41-6.27L167.41-6.27 167.41-23.88 171.71-23.88 171.71 0 169.12 0Q168.68 0 168.39-0.21 168.1-0.42 168.05-0.88L168.05-0.88 167.66-3.42Q166.12-1.71 164.23-0.67 162.34 0.37 159.85 0.37L159.85 0.37Q157.89 0.37 156.42-0.28 154.94-0.93 153.94-2.11 152.94-3.3 152.42-4.97 151.91-6.64 151.91-8.67L151.91-8.67 151.91-23.88ZM182.62 0L178.32 0 178.32-23.88 180.79-23.88Q181.47-23.88 181.75-23.61 182.04-23.34 182.08-22.71L182.08-22.71 182.38-19.19Q183.48-21.56 185.09-22.92 186.7-24.29 188.97-24.29L188.97-24.29Q189.73-24.29 190.39-24.13 191.04-23.97 191.58-23.61L191.58-23.61 191.24-20.43Q191.17-19.82 190.56-19.82L190.56-19.82Q190.21-19.82 189.59-19.96 188.97-20.09 188.21-20.09L188.21-20.09Q187.11-20.09 186.27-19.76 185.43-19.43 184.76-18.79 184.09-18.14 183.57-17.21 183.06-16.28 182.62-15.09L182.62-15.09 182.62 0ZM214.04 0.37L214.04 0.37Q211.28 0.37 209.79-1.22 208.3-2.81 208.3-5.76L208.3-5.76 208.3-20.31 205.57-20.31Q205.2-20.31 204.94-20.56 204.69-20.8 204.69-21.26L204.69-21.26 204.69-22.97 208.45-23.46 209.45-30.81Q209.5-31.18 209.75-31.4 210.01-31.62 210.4-31.62L210.4-31.62 212.6-31.62 212.6-23.44 219.16-23.44 219.16-20.31 212.6-20.31 212.6-6.05Q212.6-4.59 213.27-3.86 213.94-3.13 215.01-3.13L215.01-3.13Q215.65-3.13 216.1-3.3 216.55-3.47 216.87-3.69 217.19-3.91 217.42-4.08 217.65-4.25 217.85-4.25L217.85-4.25Q218.07-4.25 218.2-4.15 218.33-4.05 218.46-3.83L218.46-3.83 219.73-1.78Q218.63-0.76 217.14-0.2 215.65 0.37 214.04 0.37ZM228.1 0L223.8 0 223.8-23.88 226.27-23.88Q226.95-23.88 227.23-23.61 227.51-23.34 227.56-22.71L227.56-22.71 227.85-19.19Q228.95-21.56 230.56-22.92 232.17-24.29 234.45-24.29L234.45-24.29Q235.2-24.29 235.86-24.13 236.52-23.97 237.06-23.61L237.06-23.61 236.72-20.43Q236.64-19.82 236.03-19.82L236.03-19.82Q235.69-19.82 235.07-19.96 234.45-20.09 233.69-20.09L233.69-20.09Q232.59-20.09 231.75-19.76 230.91-19.43 230.23-18.79 229.56-18.14 229.05-17.21 228.54-16.28 228.1-15.09L228.1-15.09 228.1 0ZM240.72 0L240.72 0ZM241.62-23.88L245.92-23.88 245.92 0 241.62 0 241.62-23.88ZM246.75-31.35L246.75-31.35Q246.75-30.74 246.5-30.19 246.26-29.64 245.83-29.24 245.4-28.83 244.86-28.59 244.31-28.34 243.7-28.34L243.7-28.34Q243.09-28.34 242.55-28.59 242.01-28.83 241.61-29.24 241.21-29.64 240.96-30.19 240.72-30.74 240.72-31.35L240.72-31.35Q240.72-31.98 240.96-32.53 241.21-33.08 241.61-33.5 242.01-33.91 242.55-34.16 243.09-34.4 243.7-34.4L243.7-34.4Q244.31-34.4 244.86-34.16 245.4-33.91 245.83-33.5 246.26-33.08 246.5-32.53 246.75-31.98 246.75-31.35ZM257.24 8.06L252.95 8.06 252.95-23.88 255.51-23.88Q255.97-23.88 256.27-23.67 256.56-23.46 256.61-23L256.61-23 257.02-20.21Q258.54-22.05 260.49-23.17 262.44-24.29 264.98-24.29L264.98-24.29Q267.03-24.29 268.69-23.5 270.35-22.71 271.53-21.17 272.7-19.63 273.33-17.36 273.97-15.09 273.97-12.11L273.97-12.11Q273.97-9.47 273.26-7.19 272.55-4.91 271.22-3.23 269.89-1.56 267.99-0.61 266.08 0.34 263.69 0.34L263.69 0.34Q261.52 0.34 259.98-0.39 258.44-1.12 257.24-2.44L257.24-2.44 257.24 8.06ZM263.57-20.85L263.57-20.85Q261.56-20.85 260.04-19.92 258.51-18.99 257.24-17.29L257.24-17.29 257.24-5.76Q258.37-4.22 259.72-3.6 261.08-2.98 262.74-2.98L262.74-2.98Q266.01-2.98 267.78-5.35 269.55-7.71 269.55-12.11L269.55-12.11Q269.55-14.43 269.14-16.09 268.74-17.75 267.97-18.81 267.2-19.87 266.09-20.36 264.98-20.85 263.57-20.85ZM293.3-21.46L292.35-19.92Q292.05-19.38 291.47-19.38L291.47-19.38Q291.1-19.38 290.68-19.65 290.25-19.92 289.65-20.23 289.05-20.53 288.23-20.8 287.42-21.07 286.29-21.07L286.29-21.07Q285.34-21.07 284.58-20.8 283.83-20.53 283.29-20.07 282.75-19.6 282.46-18.98 282.17-18.36 282.17-17.65L282.17-17.65Q282.17-16.72 282.66-16.11 283.14-15.5 283.95-15.06 284.76-14.62 285.79-14.27 286.83-13.92 287.9-13.55 288.98-13.18 290.02-12.7 291.05-12.21 291.86-11.5 292.67-10.79 293.15-9.78 293.64-8.76 293.64-7.32L293.64-7.32Q293.64-5.66 293.08-4.26 292.52-2.86 291.43-1.83 290.35-0.81 288.75-0.22 287.15 0.37 285.07 0.37L285.07 0.37Q282.7 0.37 280.76-0.44 278.82-1.25 277.48-2.54L277.48-2.54 278.48-4.15Q278.68-4.47 278.94-4.64 279.21-4.81 279.63-4.81L279.63-4.81Q280.07-4.81 280.51-4.48 280.95-4.15 281.57-3.75 282.19-3.34 283.07-3.02 283.95-2.69 285.27-2.69L285.27-2.69Q286.39-2.69 287.21-3 288.03-3.32 288.56-3.85 289.1-4.37 289.37-5.08 289.64-5.79 289.64-6.57L289.64-6.57Q289.64-7.54 289.14-8.19 288.64-8.84 287.83-9.29 287.03-9.74 285.99-10.08 284.95-10.42 283.86-10.8 282.78-11.18 281.74-11.66 280.7-12.13 279.9-12.88 279.09-13.62 278.59-14.7 278.09-15.77 278.09-17.31L278.09-17.31Q278.09-18.7 278.63-19.96 279.16-21.22 280.19-22.17 281.22-23.12 282.73-23.68 284.24-24.24 286.2-24.24L286.2-24.24Q288.42-24.24 290.22-23.51 292.03-22.78 293.3-21.46L293.3-21.46Z" opacity="1" transform="matrix(1,0,0,1,0,0)" fill="#ffffff" class="slogan-text-1" data-fill-palette-color="quaternary" id="text-1"></path></svg></g></svg></g></svg></g></svg></g><g transform="matrix(1,0,0,1,40.713262274387006,0)"><svg viewBox="0 0 131.7319166783831 131.7319166783831" height="131.7319166783831" width="131.7319166783831"><g><svg xmlns="http://www.w3.org/2000/svg" data-name="Layer 1" viewBox="0 0 128 128" x="0" y="0" height="131.7319166783831" width="131.7319166783831" class="icon-icon-0" data-fill-palette-color="quaternary" id="icon-0"><path d="M2 56.19A2 2 0 0 0 3.36 55.65L10.83 48.65A2 2 0 1 0 8.1 45.75L0.63 52.75A2 2 0 0 0 2 56.19" fill="#ffffff" data-fill-palette-color="quaternary"></path><path d="M13 55.57A2 2 0 0 0 15.83 55.67L27.25 45A2 2 0 1 0 24.52 42.08L13.11 52.75A2 2 0 0 0 13 55.57" fill="#ffffff" data-fill-palette-color="quaternary"></path><path d="M79.36 17.64A2 2 0 0 0 76.65 17.43L44.46 42.75 29.26 28.54A2 2 0 0 0 26.53 28.54L18.1 36.41A2 2 0 1 0 20.83 39.33L27.88 32.74 54 57.13V51.66L47.42 45.51 77.67 21.71 111.53 58.35A2 2 0 1 0 114.47 55.64Z" fill="#ffffff" data-fill-palette-color="quaternary"></path><path d="M110 10.85A7.15 7.15 0 1 0 117.15 18 7.16 7.16 0 0 0 110 10.85" fill="#ffffff" data-fill-palette-color="quaternary"></path><path d="M94 20H98A2 2 0 0 0 98 16H94A2 2 0 0 0 94 20" fill="#ffffff" data-fill-palette-color="quaternary"></path><path d="M126 16H122A2 2 0 0 0 122 20H126A2 2 0 0 0 126 16" fill="#ffffff" data-fill-palette-color="quaternary"></path><path d="M110 8A2 2 0 0 0 112 6V2A2 2 0 0 0 108 2V6A2 2 0 0 0 110 8" fill="#ffffff" data-fill-palette-color="quaternary"></path><path d="M112 34V30A2 2 0 0 0 108 30V34A2 2 0 0 0 112 34" fill="#ffffff" data-fill-palette-color="quaternary"></path><path d="M100.1 10.93A2 2 0 1 0 102.93 8.1L100.1 5.27A2 2 0 0 0 97.27 8.1Z" fill="#ffffff" data-fill-palette-color="quaternary"></path><path d="M119.9 25.07A2 2 0 0 0 117.07 27.9L119.9 30.73A2 2 0 0 0 122.73 27.9Z" fill="#ffffff" data-fill-palette-color="quaternary"></path><path d="M118.49 11.51A2 2 0 0 0 119.9 10.92L122.73 8.09A2 2 0 0 0 119.9 5.26L117.07 8.1A2 2 0 0 0 118.48 11.51Z" fill="#ffffff" data-fill-palette-color="quaternary"></path><path d="M97.27 27.9A2 2 0 1 0 100.1 30.73L102.93 27.9A2 2 0 0 0 100.1 25.07Z" fill="#ffffff" data-fill-palette-color="quaternary"></path><path d="M10.41 17.08A4.49 4.49 0 0 1 16.75 17.08 2 2 0 0 0 19.58 17.08L20.41 16.25A4.48 4.48 0 0 1 26.75 16.25 2 2 0 1 0 29.58 13.42 8.5 8.5 0 0 0 18 13 8.49 8.49 0 0 0 7.59 14.25 2 2 0 0 0 10.42 17.08Z" fill="#ffffff" data-fill-palette-color="quaternary"></path><path d="M23 94A2 2 0 0 1 25 92H103.93A29 29 0 0 0 84 66.44V50A2 2 0 0 0 82.36 48L60.36 44A2 2 0 0 0 58 46V59.82A2 2 0 0 0 60.27 61.82L80 59.12V65.44A29.4 29.4 0 0 0 75 65H4A4 4 0 0 0 0 69V92H15A2 2 0 0 1 15 96H0V114A6 6 0 0 0 6 120H10A2 2 0 0 0 12 118 14 14 0 0 1 40 118 2 2 0 0 0 42 120H62A2 2 0 0 0 64 118 14 14 0 0 1 92 118 2 2 0 0 0 94 120H102A2 2 0 0 0 104 118V96H25A2 2 0 0 1 23 94M75 69A25 25 0 0 1 99.26 88H72V69ZM48 75A2 2 0 0 1 50 73H62A2 2 0 0 1 64 75V86A2 2 0 0 1 62 88H50A2 2 0 0 1 48 86ZM28 75A2 2 0 0 1 30 73H42A2 2 0 0 1 44 75V86A2 2 0 0 1 42 88H30A2 2 0 0 1 28 86ZM10 88A2 2 0 0 1 8 86V75A2 2 0 0 1 10 73H22A2 2 0 0 1 24 75V86A2 2 0 0 1 22 88Z" fill="#ffffff" data-fill-palette-color="quaternary"></path><path d="M78 108A10 10 0 1 0 88 118 10 10 0 0 0 78 108" fill="#ffffff" data-fill-palette-color="quaternary"></path><path d="M26 108A10 10 0 1 0 36 118 10 10 0 0 0 26 108" fill="#ffffff" data-fill-palette-color="quaternary"></path></svg></g></svg></g><g></g></svg></g></svg></g></svg></g></svg></g><defs></defs></svg><rect width="333.90454557049503" height="333.90454557049503" fill="none" stroke="none" visibility="hidden"></rect></g></svg></g></svg>